<?xml version="1.0" encoding="utf-8"?>
<!-- Generator: Adobe Illustrator 16.0.4, SVG Export Plug-In . SVG Version: 6.00 Build 0)  -->
<!DOCTYPE svg PUBLIC "-//W3C//DTD SVG 1.1//EN" "http://www.w3.org/Graphics/SVG/1.1/DTD/svg11.dtd">
<svg version="1.1" id="Layer_1" xmlns="http://www.w3.org/2000/svg" xmlns:xlink="http://www.w3.org/1999/xlink" x="0px" y="0px"
	 width="140px" height="84px" viewBox="0 0 140 84" enable-background="new 0 0 140 84" xml:space="preserve">
<rect fill="#FF7400" width="140" height="84"/>
<g>
	<path fill="#FFFFFF" d="M102.82,55.385h-9.771l-5.136,4.727l-4.933-4.727H60.479c-1.871,0-3.389,1.518-3.389,3.389
		c0,1.873,1.518,3.392,3.389,3.392h42.343c1.871,0,3.389-1.519,3.389-3.392C106.21,56.902,104.691,55.385,102.82,55.385z"/>
	<path fill="#FFFFFF" d="M56.512,64.152v2.672c0,3.631,2.947,6.574,6.576,6.574h37.122c3.636,0,6.575-2.943,6.575-6.574v-2.672
		H56.512z"/>
	<path fill="#FFFFFF" d="M81.665,35.478c0,0-22.688-0.79-25.153,17.786h50.273C105.275,43.184,96.857,35.478,81.665,35.478z
		 M74.209,44.1c-0.322,0.232-0.951-0.092-1.406-0.721c-0.455-0.633-0.562-1.329-0.244-1.56c0.32-0.238,0.951,0.082,1.414,0.719
		C74.422,43.167,74.537,43.867,74.209,44.1z M79.486,41.119c-0.325,0.233-0.957-0.091-1.412-0.72
		c-0.456-0.633-0.565-1.329-0.243-1.56c0.328-0.238,0.957,0.082,1.413,0.719C79.699,40.187,79.809,40.887,79.486,41.119z
		 M82.475,46.725c-0.322,0.233-0.951-0.091-1.406-0.72c-0.457-0.632-0.565-1.328-0.244-1.562c0.322-0.236,0.949,0.084,1.412,0.722
		C82.688,45.793,82.802,46.493,82.475,46.725z M86.127,42.336c-0.32,0.232-0.951-0.091-1.404-0.719
		c-0.459-0.634-0.568-1.33-0.246-1.561c0.321-0.238,0.951,0.082,1.414,0.719C86.339,41.404,86.455,42.104,86.127,42.336z
		 M92.292,42.881c-0.321,0.234-0.949-0.089-1.407-0.719c-0.455-0.633-0.562-1.329-0.242-1.56c0.318-0.238,0.95,0.082,1.412,0.719
		C92.504,41.95,92.62,42.65,92.292,42.881z"/>
</g>
<g>
	<polygon fill="#FFFFFF" points="66.295,32.301 34.376,32.301 38.897,73.398 61.636,73.398 	"/>
	<g>
		<rect x="33.215" y="26.816" fill="#FFFFFF" width="34.245" height="3.838"/>
		<rect x="42.051" y="25.449" fill="#FFFFFF" width="16.573" height="2.466"/>
		<path fill="#FFFFFF" d="M50.157,29.202c-0.097,0-0.194-0.011-0.291-0.033c-0.693-0.157-1.124-0.849-0.966-1.543l2.604-11.371
			c0.08-0.353,0.306-0.653,0.619-0.832l8.221-4.656c0.621-0.349,1.405-0.132,1.756,0.485c0.351,0.619,0.132,1.405-0.487,1.756
			l-7.727,4.377l-2.477,10.818C51.272,28.799,50.743,29.202,50.157,29.202z"/>
	</g>
</g>
</svg>
